# xmcd
#
# Track frame offsets: 
#        150
#        20101
#        44852
#        69153
#        99304
#        122405
#        136806
#        159157
#        181208
#        210309
#
# Disc length: 3194 seconds
#
# Revision: 0
# Processed by: cddbd v1.5.2PL0 Copyright (c) Steve Scherf et al.
# Submitted via: ExactAudioCopyFreeDBPlugin 1.0
#
DISCID=7c0c780a
DTITLE=Drew Sterchi - Left Here With the Blues
DYEAR=2012
DGENRE=Blues
TTITLE0=Take My Hand
TTITLE1=Left Here With the Blues
TTITLE2=Carry On
TTITLE3=Work It Out
TTITLE4=Peggy's Song
TTITLE5=Me and My Baby
TTITLE6=Free
TTITLE7=Leaving Me
TTITLE8=Waiting for You
TTITLE9=Feel the Love
EXTD=
EXTT0=
EXTT1=
EXTT2=
EXTT3=
EXTT4=
EXTT5=
EXTT6=
EXTT7=
EXTT8=
EXTT9=
PLAYORDER=
